<svg xmlns="http://www.w3.org/2000/svg" xmlns:xlink="http://www.w3.org/1999/xlink" width="720" height="520" viewBox="0 0 720 520">
  <defs>
    <clipPath id="clip-path">
      <rect id="Background" width="720" height="520" transform="translate(-5409 -3094)" fill="#faf7f1"/>
    </clipPath>
  </defs>
  <g id="Groupe_de_masques_9" data-name="Groupe de masques 9" transform="translate(5409 3094)" clip-path="url(#clip-path)">
    <g id="Group_37" data-name="Group 37" transform="translate(-1087.599 492.829)">
      <g id="Hinterrhein" transform="translate(-4552.105 -3573.831)">
        <ellipse id="Shape" cx="37.62" cy="36.927" rx="37.62" ry="36.927" transform="translate(1791.175 62.038)" fill="none" stroke="#cfcfaf" stroke-linejoin="round" stroke-miterlimit="10" stroke-width="23.236"/>
        <path id="Shape-2" data-name="Shape" d="M80.189,83.7h36.182c24.306,0,44.007-18.737,44.007-41.85S140.678,0,116.372,0H44C19.7,0,0,18.737,0,41.85" transform="translate(1773.355 182.173)" fill="none" stroke="#f6ae9f" stroke-linejoin="round" stroke-miterlimit="10" stroke-width="23.236"/>
        <path id="Shape-3" data-name="Shape" d="M0,67.945A68.028,68.028,0,0,1,68.1,0h120" transform="translate(1811.965 1104.85)" fill="none" stroke="#cfcfaf" stroke-linejoin="round" stroke-miterlimit="10" stroke-width="23.236"/>
        <path id="Shape-4" data-name="Shape" d="M.387,0V97.487" transform="translate(1904.142 301.323)" fill="none" stroke="#f6ae9f" stroke-linejoin="round" stroke-miterlimit="10" stroke-width="23.236"/>
        <path id="Shape-5" data-name="Shape" d="M43.094,0h-3.1a39.881,39.881,0,1,0,0,79.762h92.337a39.881,39.881,0,1,0,0-79.762h-3.1" transform="translate(1477.318 1093.033)" fill="none" stroke="#05203d" stroke-linejoin="round" stroke-miterlimit="10" stroke-width="23.236"/>
        <path id="Shape-6" data-name="Shape" d="M0,46.282a46.53,46.53,0,0,1,93.059,0" transform="translate(1824.835 504.174)" fill="none" stroke="#cfcfaf" stroke-linejoin="round" stroke-miterlimit="10" stroke-width="23.236"/>
        <path id="Shape-7" data-name="Shape" d="M0,40.866A40.591,40.591,0,1,1,40.59,81.731,40.728,40.728,0,0,1,0,40.866Z" transform="translate(1934.229 586.398)" fill="none" stroke="#f6ae9f" stroke-linejoin="round" stroke-miterlimit="10" stroke-width="23.236"/>
        <path id="Shape-8" data-name="Shape" d="M46.53,92.563A46.282,46.282,0,1,1,46.53,0" transform="translate(1123.919 1084.171)" fill="none" stroke="#89c7aa" stroke-linejoin="round" stroke-miterlimit="10" stroke-width="23.236"/>
        <path id="Shape-9" data-name="Shape" d="M44.117,76.808A38.729,38.729,0,0,0,83.159,38.4,38.729,38.729,0,0,0,44.117,0H0" transform="translate(1522.887 137.861)" fill="none" stroke="#f6ae9f" stroke-linejoin="round" stroke-miterlimit="10" stroke-width="23.236"/>
        <path id="Shape-10" data-name="Shape" d="M106.919,202.868V53.113A53.46,53.46,0,0,0,0,53.113V76.291" transform="translate(1618.916 973.866)" fill="none" stroke="#89c7aa" stroke-linejoin="round" stroke-miterlimit="10" stroke-width="23.236"/>
        <ellipse id="Shape-11" data-name="Shape" cx="26.73" cy="26.095" rx="26.73" ry="26.095" transform="translate(6.217 832.084)" fill="none" stroke="#cfcfaf" stroke-linejoin="round" stroke-miterlimit="10" stroke-width="23.236"/>
        <path id="Shape-12" data-name="Shape" d="M0,87.115V29.66a29.7,29.7,0,0,1,59.4,0V144.57a29.7,29.7,0,0,1-59.4,0V130.686" transform="translate(853.651 0.033)" fill="none" stroke="#06818e" stroke-linejoin="round" stroke-miterlimit="10" stroke-width="15"/>
        <path id="Shape-13" data-name="Shape" d="M0,0V149.508c0,44.867,36.567,81.239,81.674,81.239a81.753,81.753,0,0,0,57.008-23.063" transform="translate(798.212 8.863)" fill="none" stroke="#16a3b2" stroke-linejoin="round" stroke-miterlimit="10" stroke-width="15"/>
        <path id="Shape-14" data-name="Shape" d="M0,0H178.178a122.6,122.6,0,1,1,0,245.194H124.572" transform="translate(1380.328 51.206)" fill="none" stroke="#89c7aa" stroke-linejoin="round" stroke-miterlimit="10" stroke-width="23.236"/>
        <path id="Shape-15" data-name="Shape" d="M113.849,0V80.758c0,34.8-28.626,63.01-63.943,63.01H0" transform="translate(1744.645 301.323)" fill="none" stroke="#05203d" stroke-linejoin="round" stroke-miterlimit="10" stroke-width="23.236"/>
        <path id="Shape-16" data-name="Shape" d="M0,0V54.152c0,39.166,31.917,70.91,71.286,70.906" transform="translate(627.933 350.559)" fill="none" stroke="#16a3b2" stroke-linejoin="round" stroke-miterlimit="10" stroke-width="15"/>
        <path id="Shape-17" data-name="Shape" d="M0,185.126V100.362C0,51.556,38.452,10.671,90.089,0" transform="translate(518.044 548.487)" fill="none" stroke="#f6ae9f" stroke-linejoin="round" stroke-miterlimit="10" stroke-width="23.236"/>
        <path id="Shape-18" data-name="Shape" d="M0,46.619a47.025,47.025,0,0,1,94.049,0V80.493A47.025,47.025,0,0,1,0,80.493Z" transform="translate(1714.945 264.847)" fill="none" stroke="#89c7aa" stroke-linejoin="round" stroke-miterlimit="10" stroke-width="23.236"/>
        <path id="Shape-19" data-name="Shape" d="M70.29,267.842V70.112C70.344,31.444,38.875.054,0,0" transform="translate(669.513 89.61)" fill="none" stroke="#f6ae9f" stroke-linejoin="round" stroke-miterlimit="10" stroke-width="15"/>
        <ellipse id="Shape-20" data-name="Shape" cx="31.68" cy="31.511" rx="31.68" ry="31.511" transform="translate(1373.398 176.265)" fill="none" stroke="#89c7aa" stroke-linejoin="round" stroke-miterlimit="10" stroke-width="23.236"/>
        <path id="Shape-21" data-name="Shape" d="M91.079,178.233c50.3,0,91.079-39.9,91.079-89.117S141.378,0,91.079,0,0,39.9,0,89.117" transform="translate(1313.998 118.167)" fill="none" stroke="#f6ae9f" stroke-linejoin="round" stroke-miterlimit="10" stroke-width="23.236"/>
        <path id="Shape-22" data-name="Shape" d="M37.125,0A36.927,36.927,0,1,0,74.249,36.927V0" transform="translate(1214.009 61.053)" fill="none" stroke="#05203d" stroke-linejoin="round" stroke-miterlimit="10" stroke-width="23.236"/>
        <path id="Shape-23" data-name="Shape" d="M42.9,87.4a42.464,42.464,0,1,0,43.065,42.458V0" transform="translate(1061.713 708.01)" fill="none" stroke="#cfcfaf" stroke-linejoin="round" stroke-miterlimit="10" stroke-width="23.236"/>
        <path id="Shape-24" data-name="Shape" d="M90.912,38.9A38.695,38.695,0,1,0,129.61,0H0" transform="translate(845.731 1045.767)" fill="none" stroke="#f6ae9f" stroke-linejoin="round" stroke-miterlimit="10" stroke-width="23.236"/>
        <path id="Shape-25" data-name="Shape" d="M50.985,100.324c28.158,0,50.985-22.459,50.985-50.158S79.143,0,50.985,0,0,22.459,0,50.166V255.041" transform="translate(5.227 925.632)" fill="none" stroke="#89c7aa" stroke-linejoin="round" stroke-miterlimit="10" stroke-width="23.236"/>
        <path id="Shape-26" data-name="Shape" d="M36.469,0H134.89a36.435,36.435,0,1,1,0,72.869H36.469A36.435,36.435,0,1,1,36.469,0Z" transform="translate(737.777 1099.927)" fill="none" stroke="#cfcfaf" stroke-linejoin="round" stroke-miterlimit="10" stroke-width="23.236"/>
        <path id="Shape-27" data-name="Shape" d="M178.2,0c0,48.946-39.891,88.624-89.1,88.624S0,48.946,0,0" transform="translate(413.104 253.072)" fill="none" stroke="#f6ae9f" stroke-linejoin="round" stroke-miterlimit="10" stroke-width="15"/>
        <path id="Shape-28" data-name="Shape" d="M77.219,146.722V38.4A38.61,38.61,0,0,0,0,38.4V55.172" transform="translate(591.303 150.662)" fill="none" stroke="#111747" stroke-linejoin="round" stroke-miterlimit="10" stroke-width="15"/>
        <ellipse id="Shape-29" data-name="Shape" cx="26.73" cy="26.095" rx="26.73" ry="26.095" transform="translate(413.104 386.993)" fill="none" stroke="#111747" stroke-linejoin="round" stroke-miterlimit="10" stroke-width="15"/>
        <path id="Shape-30" data-name="Shape" d="M0,146.991V38.23a38.61,38.61,0,0,1,77.219,0V146.991a38.61,38.61,0,0,1-77.219,0Z" transform="translate(462.604 89.563)" fill="none" stroke="#06818e" stroke-linejoin="round" stroke-miterlimit="10" stroke-width="15"/>
        <path id="Shape-31" data-name="Shape" d="M187.109,0H99.915C44.713.021-.02,44.549,0,99.456" transform="translate(1159.559 297.384)" fill="none" stroke="#f6ae9f" stroke-linejoin="round" stroke-miterlimit="10" stroke-width="23.236"/>
        <path id="Shape-32" data-name="Shape" d="M39.1,0C17.508,0,0,17.194,0,38.4s17.508,38.4,39.1,38.4,39.1-17.194,39.1-38.4V0" transform="translate(1394.188 488.419)" fill="none" stroke="#f6ae9f" stroke-linejoin="round" stroke-miterlimit="10" stroke-width="23.236"/>
        <path id="Shape-33" data-name="Shape" d="M0,107.092c0,55.062,45.434,99.7,101.474,99.7s101.474-44.636,101.474-99.7V0" transform="translate(1672.376 563.257)" fill="none" stroke="#89c7aa" stroke-linejoin="round" stroke-miterlimit="10" stroke-width="23.236"/>
        <path id="Shape-34" data-name="Shape" d="M57.044,103.395H51.995A51.7,51.7,0,1,1,51.995,0H210.338a51.7,51.7,0,1,1,0,103.395h-1.554" transform="translate(1562.492 613.478)" fill="none" stroke="#05203d" stroke-linejoin="round" stroke-miterlimit="10" stroke-width="23.236"/>
        <path id="Shape-35" data-name="Shape" d="M0,0H63.885c42.906,0,77.684,34.388,77.684,76.808" transform="translate(1522.887 488.419)" fill="none" stroke="#89c7aa" stroke-linejoin="round" stroke-miterlimit="10" stroke-width="23.236"/>
        <ellipse id="Shape-36" data-name="Shape" cx="37.62" cy="36.927" rx="37.62" ry="36.927" transform="translate(822.961 802.543)" fill="none" stroke="#05203d" stroke-linejoin="round" stroke-miterlimit="10" stroke-width="23.236"/>
        <path id="Shape-37" data-name="Shape" d="M3.366,68.457c-13.8,51.327,16.059,103.893,66.686,117.414s102.86-17.134,116.658-68.456S170.656,13.522,120.028,0" transform="translate(765.541 749.368)" fill="none" stroke="#cfcfaf" stroke-linejoin="round" stroke-miterlimit="10" stroke-width="23.236"/>
        <path id="Shape-38" data-name="Shape" d="M247.435,129.723H64.029C28.684,129.706.017,100.654,0,64.832S28.622-.018,63.966,0,127.98,29.069,128,64.893H68.28" transform="translate(590.039 619.252)" fill="none" stroke="#05203d" stroke-miterlimit="10" stroke-width="23.236"/>
        <path id="Shape-39" data-name="Shape" d="M.387,0V174.294" transform="translate(832.969 538.639)" fill="none" stroke="#89c7aa" stroke-linejoin="round" stroke-miterlimit="10" stroke-width="23.236"/>
        <path id="Shape-40" data-name="Shape" d="M28.73,56.129C12.862,56.129,0,43.565,0,28.064S12.862,0,28.73,0H59.4" transform="translate(467.554 1029.027)" fill="none" stroke="#cfcfaf" stroke-linejoin="round" stroke-miterlimit="10" stroke-width="23.236"/>
        <ellipse id="Shape-41" data-name="Shape" cx="41.085" cy="40.373" rx="41.085" ry="40.373" transform="translate(283.415 1046.752)" fill="none" stroke="#f6ae9f" stroke-linejoin="round" stroke-miterlimit="10" stroke-width="23.236"/>
        <path id="Shape-42" data-name="Shape" d="M179.189,90.594C179.189,40.563,139.076,0,89.594,0S0,40.563,0,90.594s40.113,90.594,89.594,90.594" transform="translate(231.936 995.547)" fill="none" stroke="#05203d" stroke-linejoin="round" stroke-miterlimit="10" stroke-width="23.236"/>
        <path id="Shape-43" data-name="Shape" d="M83.159,86.655h37.526c25.2,0,45.634-19.4,45.634-43.327S145.888,0,120.685,0H45.634C20.43,0,0,19.4,0,43.327" transform="translate(480.424 942.372)" fill="none" stroke="#05203d" stroke-linejoin="round" stroke-miterlimit="10" stroke-width="23.236"/>
        <path id="Shape-44" data-name="Shape" d="M0,82.716A82.76,82.76,0,0,1,82.8,0H228.688" transform="translate(412.114 884.274)" fill="none" stroke="#05203d" stroke-linejoin="round" stroke-miterlimit="10" stroke-width="23.236"/>
        <path id="Shape-45" data-name="Shape" d="M.387,0V82.716" transform="translate(364.702 884.274)" fill="none" stroke="#f6ae9f" stroke-linejoin="round" stroke-miterlimit="10" stroke-width="23.236"/>
        <path id="Shape-46" data-name="Shape" d="M.387,0V71.884" transform="translate(778.519 637.111)" fill="none" stroke="#f6ae9f" stroke-linejoin="round" stroke-miterlimit="10" stroke-width="23.236"/>
        <path id="Shape-47" data-name="Shape" d="M81.264,40.866A40.632,40.632,0,1,1,40.631,0H171.269" transform="translate(812.071 392.902)" fill="none" stroke="#f6ae9f" stroke-linejoin="round" stroke-miterlimit="10" stroke-width="15"/>
        <path id="Shape-48" data-name="Shape" d="M0,87.115V29.66a29.7,29.7,0,0,1,59.4,0V144.57a29.7,29.7,0,0,1-59.4,0V130.686" transform="translate(1035.81 434.292)" fill="none" stroke="#cfcfaf" stroke-linejoin="round" stroke-miterlimit="10" stroke-width="23.236"/>
        <path id="Shape-49" data-name="Shape" d="M0,0V149.508c0,44.867,36.567,81.239,81.674,81.239s81.674-36.372,81.674-81.239V114.184" transform="translate(984.33 434.26)" fill="none" stroke="#89c7aa" stroke-linejoin="round" stroke-miterlimit="10" stroke-width="23.236"/>
        <path id="Shape-50" data-name="Shape" d="M99,0H56.133A56.128,56.128,0,0,0,0,56.129" transform="translate(898.201 301.323)" fill="none" stroke="#05203d" stroke-linejoin="round" stroke-miterlimit="10" stroke-width="15"/>
        <path id="Shape-51" data-name="Shape" d="M.387,0V133.921" transform="translate(1034.928 258.981)" fill="none" stroke="#f6ae9f" stroke-linejoin="round" stroke-miterlimit="10" stroke-width="23.236"/>
        <path id="Shape-52" data-name="Shape" d="M133.649,30.717V43.7a33.541,33.541,0,0,1-67.081,0V32.945A33.285,33.285,0,0,0,0,32.945V46.179" transform="translate(1147.679 447.017)" fill="none" stroke="#89c7aa" stroke-linejoin="round" stroke-miterlimit="10" stroke-width="23.236"/>
        <path id="Shape-53" data-name="Shape" d="M86.9,173.31c-48.115,0-87.119-38.8-87.119-86.655S38.788,0,86.9,0h79.477" transform="translate(0.217 585.906)" fill="none" stroke="#cfcfaf" stroke-linejoin="round" stroke-miterlimit="10" stroke-width="23.236"/>
        <path id="Shape-54" data-name="Shape" d="M37.107,21.743A36.887,36.887,0,1,0,74.232,58.631V0" transform="translate(183.444 725.735)" fill="none" stroke="#05203d" stroke-linejoin="round" stroke-miterlimit="10" stroke-width="23.236"/>
        <path id="Shape-55" data-name="Shape" d="M70.734,76.808H38.792A38.4,38.4,0,1,1,38.792,0h63.883a38.625,38.625,0,0,1,38.843,38.4v3.412a35.194,35.194,0,0,1-35.392,34.992" transform="translate(56.757 634.157)" fill="none" stroke="#f6ae9f" stroke-linejoin="round" stroke-miterlimit="10" stroke-width="23.236"/>
        <path id="Shape-56" data-name="Shape" d="M0,127.028V68.865C0,35.376,26.621,7.322,62.37,0" transform="translate(262.625 544.548)" fill="none" stroke="#cfcfaf" stroke-linejoin="round" stroke-miterlimit="10" stroke-width="23.236"/>
        <path id="Shape-57" data-name="Shape" d="M0,47.173a47.52,47.52,0,0,1,95.039,0V157.7A47.52,47.52,0,0,1,0,157.7Z" transform="translate(316.085 605.575)" fill="none" stroke="#89c7aa" stroke-linejoin="round" stroke-miterlimit="10" stroke-width="23.236"/>
        <path id="Shape-58" data-name="Shape" d="M0,38.834a38.61,38.61,0,1,1,77.219,0V82.716" transform="translate(1214.009 828.145)" fill="none" stroke="#f6ae9f" stroke-linejoin="round" stroke-miterlimit="10" stroke-width="23.236"/>
        <ellipse id="Shape-59" data-name="Shape" cx="41.085" cy="40.373" rx="41.085" ry="40.373" transform="translate(1331.818 765.124)" fill="none" stroke="#f6ae9f" stroke-linejoin="round" stroke-miterlimit="10" stroke-width="23.236"/>
        <path id="Shape-60" data-name="Shape" d="M73.985,36.927A36.993,36.993,0,1,1,36.993,0H175.229" transform="translate(1218.958 947.296)" fill="none" stroke="#cfcfaf" stroke-linejoin="round" stroke-miterlimit="10" stroke-width="23.236"/>
        <path id="Shape-61" data-name="Shape" d="M0,0H134.8c51.4,0,93.059,41.442,93.059,92.563S186.2,185.126,134.8,185.126H94.247" transform="translate(1246.679 711.949)" fill="none" stroke="#05203d" stroke-linejoin="round" stroke-miterlimit="10" stroke-width="23.236"/>
        <path id="Shape-62" data-name="Shape" d="M0,0H42.714c43.208.091,78.16,35.007,78.065,77.984v79.57" transform="translate(1442.697 947.296)" fill="none" stroke="#cfcfaf" stroke-linejoin="round" stroke-miterlimit="10" stroke-width="23.236"/>
        <ellipse id="Shape-63" data-name="Shape" cx="26.73" cy="26.095" rx="26.73" ry="26.095" transform="translate(1457.547 999.486)" fill="none" stroke="#05203d" stroke-linejoin="round" stroke-miterlimit="10" stroke-width="23.236"/>
        <g id="Shape-64" data-name="Shape" transform="translate(1339.214 1055.614)">
          <path id="Shape-65" data-name="Shape" d="M.365,0,.422,29.541" transform="translate(-0.365 58.098)" fill="none" stroke="#89c7aa" stroke-linejoin="round" stroke-miterlimit="10" stroke-width="23.236"/>
          <path id="Shape-66" data-name="Shape" d="M.365,0,.422,29.541" transform="translate(-0.365)" fill="none" stroke="#cfcfaf" stroke-linejoin="round" stroke-miterlimit="10" stroke-width="23.236"/>
        </g>
        <path id="Shape-67" data-name="Shape" d="M.365,0,.422,29.541" transform="translate(1153.721 1005.394)" fill="none" stroke="#89c7aa" stroke-linejoin="round" stroke-miterlimit="10" stroke-width="23.236"/>
        <path id="Shape-68" data-name="Shape" d="M.365,0,.422,29.541" transform="translate(1153.721 947.296)" fill="none" stroke="#f6ae9f" stroke-linejoin="round" stroke-miterlimit="10" stroke-width="23.236"/>
        <path id="Shape-69" data-name="Shape" d="M.365,0,.422,29.541" transform="translate(1094.321 947.296)" fill="none" stroke="#cfcfaf" stroke-linejoin="round" stroke-miterlimit="10" stroke-width="23.236"/>
        <path id="Shape-70" data-name="Shape" d="M.365,0,.422,29.541" transform="translate(682.484 869.503)" fill="none" stroke="#05203d" stroke-linejoin="round" stroke-miterlimit="10" stroke-width="23.236"/>
        <path id="Shape-71" data-name="Shape" d="M.365,0,.422,29.541" transform="translate(243.917 890.182)" fill="none" stroke="#f6ae9f" stroke-linejoin="round" stroke-miterlimit="10" stroke-width="23.236"/>
        <path id="Shape-72" data-name="Shape" d="M.365,0,.422,29.541" transform="translate(377.566 492.358)" fill="none" stroke="#f6ae9f" stroke-linejoin="round" stroke-miterlimit="10" stroke-width="15"/>
        <path id="Shape-73" data-name="Shape" d="M.365,0,.422,29.541" transform="translate(329.056 419.489)" fill="none" stroke="#06818e" stroke-linejoin="round" stroke-miterlimit="10" stroke-width="15"/>
        <path id="Shape-74" data-name="Shape" d="M.365,0,.422,29.541" transform="translate(738.914 459.862)" fill="none" stroke="#16a3b2" stroke-linejoin="round" stroke-miterlimit="10" stroke-width="15"/>
        <path id="Shape-75" data-name="Shape" d="M.365,0,.422,29.541" transform="translate(1033.932 147.708)" fill="none" stroke="#89c7aa" stroke-linejoin="round" stroke-miterlimit="10" stroke-width="23.236"/>
        <path id="Shape-76" data-name="Shape" d="M.365,0,.422,29.541" transform="translate(1033.932 91.579)" fill="none" stroke="#05203d" stroke-linejoin="round" stroke-miterlimit="10" stroke-width="23.236"/>
        <path id="Shape-77" data-name="Shape" d="M.365,0,.422,29.541" transform="translate(1359.639 617.417)" fill="none" stroke="#05203d" stroke-linejoin="round" stroke-miterlimit="10" stroke-width="23.236"/>
        <path id="Shape-78" data-name="Shape" d="M.365,0,.422,29.541" transform="translate(1429.929 617.417)" fill="none" stroke="#05203d" stroke-linejoin="round" stroke-miterlimit="10" stroke-width="23.236"/>
        <path id="Shape-79" data-name="Shape" d="M.365,0,.422,29.541" transform="translate(1500.218 617.417)" fill="none" stroke="#05203d" stroke-linejoin="round" stroke-miterlimit="10" stroke-width="23.236"/>
        <path id="Shape-80" data-name="Shape" d="M.365,0,.422,29.541" transform="translate(1895.226 983.73)" fill="none" stroke="#f6ae9f" stroke-linejoin="round" stroke-miterlimit="10" stroke-width="23.236"/>
      </g>
      <path id="Shape-81" data-name="Shape" d="M98.952,165.867C44.3,165.867,0,117.116,0,56.968A116.6,116.6,0,0,1,14.6,0" transform="translate(-3404.426 -3531.8)" fill="none" stroke="#cfcfaf" stroke-linejoin="round" stroke-miterlimit="10" stroke-width="23.236"/>
      <path id="Shape-82" data-name="Shape" d="M125.128,0H57.761A92.564,92.564,0,0,0,0,20.467" transform="translate(-3363.236 -3583.731)" fill="none" stroke="#cfcfaf" stroke-linejoin="round" stroke-miterlimit="10" stroke-width="23.236"/>
      <path id="Shape-83" data-name="Shape" d="M0,98.952C0,44.3,48.753,0,108.9,0a116.6,116.6,0,0,1,56.968,14.6" transform="translate(-2958.929 -2720.457)" fill="none" stroke="#f6ae9f" stroke-linejoin="round" stroke-miterlimit="10" stroke-width="23.236"/>
      <path id="Shape-84" data-name="Shape" d="M20.47,125.128V57.761C20.47,36.525,13.108,16.851.42.534.385.489.2.244,0,0" transform="translate(-2761.601 -2679.267)" fill="none" stroke="#f6ae9f" stroke-linejoin="round" stroke-miterlimit="10" stroke-width="23.236"/>
    </g>
  </g>
</svg>
