<svg xmlns="http://www.w3.org/2000/svg" xmlns:xlink="http://www.w3.org/1999/xlink" width="1000" height="520" viewBox="0 0 1000 520">
  <defs>
    <clipPath id="clip-path">
      <rect id="Background" width="1000" height="520" transform="translate(-4689 -3092)" fill="#faf7f1"/>
    </clipPath>
  </defs>
  <g id="pattern3" transform="translate(4689 3092)" clip-path="url(#clip-path)">
    <g id="Group_37" data-name="Group 37" transform="translate(-5625.704 -3258.85)">
      <g id="Hinterrhein" transform="translate(0 0)">
        <path id="Shape" d="M0,68.31A68.211,68.211,0,0,1,68.1,0h120" transform="translate(1811.965 1110.621)" fill="none" stroke="#cfcfaf" stroke-linejoin="round" stroke-miterlimit="10" stroke-width="23.236"/>
        <path id="Shape-2" data-name="Shape" d="M.387,0V98.009" transform="translate(1913.418 310.211)" fill="none" stroke="#f6ae9f" stroke-linejoin="round" stroke-miterlimit="10" stroke-width="15"/>
        <path id="Shape-3" data-name="Shape" d="M43.094,0h-3.1a40.095,40.095,0,0,0,0,80.189h92.337a40.095,40.095,0,1,0,0-80.189h-3.1" transform="translate(1477.318 1098.741)" fill="none" stroke="#05203d" stroke-linejoin="round" stroke-miterlimit="10" stroke-width="23.236"/>
        <path id="Shape-4" data-name="Shape" d="M0,41.085C0,18.394,18.172,0,40.59,0s40.59,18.394,40.59,41.085S63.007,82.169,40.59,82.169,0,63.775,0,41.085Z" transform="translate(1959.474 592.854)" fill="none" stroke="#f6ae9f" stroke-linejoin="round" stroke-miterlimit="10" stroke-width="15"/>
        <path id="Shape-5" data-name="Shape" d="M46.53,93.059A46.53,46.53,0,1,1,46.53,0" transform="translate(1123.919 1089.831)" fill="none" stroke="#89c7aa" stroke-linejoin="round" stroke-miterlimit="10" stroke-width="23.236"/>
        <path id="Shape-6" data-name="Shape" d="M106.919,203.956V53.4A53.46,53.46,0,1,0,0,53.4V76.7" transform="translate(1618.916 978.935)" fill="none" stroke="#89c7aa" stroke-linejoin="round" stroke-miterlimit="10" stroke-width="23.236"/>
        <ellipse id="Shape-7" data-name="Shape" cx="26.73" cy="26.235" rx="26.73" ry="26.235" transform="translate(6.217 836.393)" fill="none" stroke="#cfcfaf" stroke-linejoin="round" stroke-miterlimit="10" stroke-width="23.236"/>
        <path id="Shape-8" data-name="Shape" d="M0,87.581V29.818a29.7,29.7,0,1,1,59.4,0V145.345a29.7,29.7,0,1,1-59.4,0V131.386" transform="translate(853.651 -0.118)" fill="none" stroke="#06818e" stroke-linejoin="round" stroke-miterlimit="10" stroke-width="15"/>
        <path id="Shape-9" data-name="Shape" d="M0,0V150.31a81.674,81.674,0,0,0,81.674,81.674" transform="translate(798.212 8.758)" fill="none" stroke="#16a3b2" stroke-linejoin="round" stroke-miterlimit="10" stroke-width="15"/>
        <path id="Shape-10" data-name="Shape" d="M0,0V54.443a71.281,71.281,0,0,0,71.286,71.286" transform="translate(627.933 352.286)" fill="none" stroke="#16a3b2" stroke-linejoin="round" stroke-miterlimit="10" stroke-width="15"/>
        <path id="Shape-11" data-name="Shape" d="M0,186.119V100.9C0,51.832,38.452,10.729,90.089,0" transform="translate(518.044 551.275)" fill="none" stroke="#f6ae9f" stroke-linejoin="round" stroke-miterlimit="10" stroke-width="23.236"/>
        <path id="Shape-12" data-name="Shape" d="M70.29,269.278V70.488A70.389,70.389,0,0,0,0,0" transform="translate(669.513 89.938)" fill="none" stroke="#f6ae9f" stroke-linejoin="round" stroke-miterlimit="10" stroke-width="15"/>
        <path id="Shape-13" data-name="Shape" d="M42.9,87.87a42.69,42.69,0,1,0,43.065,42.686V0" transform="translate(1061.713 711.654)" fill="none" stroke="#cfcfaf" stroke-linejoin="round" stroke-miterlimit="10" stroke-width="23.236"/>
        <path id="Shape-14" data-name="Shape" d="M90.912,39.1A38.7,38.7,0,1,0,129.61,0H0" transform="translate(845.731 1051.221)" fill="none" stroke="#f6ae9f" stroke-linejoin="round" stroke-miterlimit="10" stroke-width="23.236"/>
        <path id="Shape-15" data-name="Shape" d="M50.985,100.861c28.158,0,50.985-22.58,50.985-50.427S79.143,0,50.985,0,0,22.58,0,50.435V256.408" transform="translate(5.227 930.442)" fill="none" stroke="#89c7aa" stroke-linejoin="round" stroke-miterlimit="10" stroke-width="23.236"/>
        <path id="Shape-16" data-name="Shape" d="M36.469,0H134.89a36.63,36.63,0,1,1,0,73.259H36.469A36.63,36.63,0,1,1,36.469,0Z" transform="translate(737.777 1105.671)" fill="none" stroke="#cfcfaf" stroke-linejoin="round" stroke-miterlimit="10" stroke-width="23.236"/>
        <path id="Shape-17" data-name="Shape" d="M178.2,0A89.1,89.1,0,0,1,89.1,89.1,89.1,89.1,0,0,1,0,0" transform="translate(413.104 254.277)" fill="none" stroke="#f6ae9f" stroke-linejoin="round" stroke-miterlimit="10" stroke-width="15"/>
        <path id="Shape-18" data-name="Shape" d="M77.219,147.509V38.61A38.61,38.61,0,1,0,0,38.61V55.467" transform="translate(591.303 151.317)" fill="none" stroke="#111747" stroke-linejoin="round" stroke-miterlimit="10" stroke-width="15"/>
        <ellipse id="Shape-19" data-name="Shape" cx="26.73" cy="26.235" rx="26.73" ry="26.235" transform="translate(413.104 388.916)" fill="none" stroke="#111747" stroke-linejoin="round" stroke-miterlimit="10" stroke-width="15"/>
        <path id="Shape-20" data-name="Shape" d="M0,147.78V38.435a38.61,38.61,0,1,1,77.219,0V147.78A38.61,38.61,0,0,1,0,147.78Z" transform="translate(462.604 89.889)" fill="none" stroke="#06818e" stroke-linejoin="round" stroke-miterlimit="10" stroke-width="15"/>
        <path id="Shape-21" data-name="Shape" d="M0,107.666C0,163.023,45.434,207.9,101.474,207.9s101.474-44.875,101.474-100.233V0" transform="translate(1668.386 616.614)" fill="none" stroke="#16a3b2" stroke-linejoin="round" stroke-miterlimit="10" stroke-width="15"/>
        <path id="Shape-22" data-name="Shape" d="M57.044,103.949H51.995A51.975,51.975,0,1,1,51.995,0H210.338a51.975,51.975,0,0,1,0,103.949h-1.554" transform="translate(1562.492 616.614)" fill="none" stroke="#111747" stroke-linejoin="round" stroke-miterlimit="10" stroke-width="15"/>
        <path id="Shape-23" data-name="Shape" d="M0,0H63.885c42.906,0,77.684,34.573,77.684,77.219" transform="translate(1332.969 478.015)" fill="none" stroke="#16a3b2" stroke-linejoin="round" stroke-miterlimit="10" stroke-width="15"/>
        <ellipse id="Shape-24" data-name="Shape" cx="37.62" cy="37.125" rx="37.62" ry="37.125" transform="translate(822.961 806.693)" fill="none" stroke="#05203d" stroke-linejoin="round" stroke-miterlimit="10" stroke-width="23.236"/>
        <path id="Shape-25" data-name="Shape" d="M3.366,68.824c-13.8,51.6,16.059,104.45,66.686,118.044s102.86-17.226,116.658-68.823S170.656,13.595,120.028,0" transform="translate(765.541 753.233)" fill="none" stroke="#cfcfaf" stroke-linejoin="round" stroke-miterlimit="10" stroke-width="23.236"/>
        <path id="Shape-26" data-name="Shape" d="M247.435,130.419H64.029C28.684,130.4.017,101.193,0,65.179S28.622-.018,63.966,0,127.98,29.225,128,65.241H68.28" transform="translate(590.039 622.42)" fill="none" stroke="#05203d" stroke-miterlimit="10" stroke-width="23.236"/>
        <path id="Shape-27" data-name="Shape" d="M.387,0V175.229" transform="translate(832.969 541.375)" fill="none" stroke="#89c7aa" stroke-linejoin="round" stroke-miterlimit="10" stroke-width="23.236"/>
        <path id="Shape-28" data-name="Shape" d="M28.73,56.43C12.862,56.43,0,43.8,0,28.215S12.862,0,28.73,0H59.4" transform="translate(467.554 1034.391)" fill="none" stroke="#cfcfaf" stroke-linejoin="round" stroke-miterlimit="10" stroke-width="23.236"/>
        <ellipse id="Shape-29" data-name="Shape" cx="41.085" cy="40.59" rx="41.085" ry="40.59" transform="translate(283.415 1052.211)" fill="none" stroke="#f6ae9f" stroke-linejoin="round" stroke-miterlimit="10" stroke-width="23.236"/>
        <path id="Shape-30" data-name="Shape" d="M179.189,91.079C179.189,40.781,139.076,0,89.594,0S0,40.781,0,91.079s40.113,91.079,89.594,91.079" transform="translate(231.936 1000.732)" fill="none" stroke="#05203d" stroke-linejoin="round" stroke-miterlimit="10" stroke-width="23.236"/>
        <path id="Shape-31" data-name="Shape" d="M83.159,87.119h37.526c25.2,0,45.634-19.5,45.634-43.56S145.888,0,120.685,0H45.634C20.43,0,0,19.5,0,43.56" transform="translate(480.424 947.272)" fill="none" stroke="#05203d" stroke-linejoin="round" stroke-miterlimit="10" stroke-width="23.236"/>
        <path id="Shape-32" data-name="Shape" d="M0,83.159C0,37.236,37.07,0,82.8,0H228.688" transform="translate(412.114 888.862)" fill="none" stroke="#05203d" stroke-linejoin="round" stroke-miterlimit="10" stroke-width="23.236"/>
        <path id="Shape-33" data-name="Shape" d="M.387,0V83.159" transform="translate(364.702 888.862)" fill="none" stroke="#f6ae9f" stroke-linejoin="round" stroke-miterlimit="10" stroke-width="23.236"/>
        <path id="Shape-34" data-name="Shape" d="M.387,0V72.27" transform="translate(778.519 640.374)" fill="none" stroke="#f6ae9f" stroke-linejoin="round" stroke-miterlimit="10" stroke-width="23.236"/>
        <path id="Shape-35" data-name="Shape" d="M0,87.581V29.818a29.7,29.7,0,1,1,59.4,0V145.345a29.7,29.7,0,1,1-59.4,0V131.386" transform="translate(1035.81 436.469)" fill="none" stroke="#06818e" stroke-linejoin="round" stroke-miterlimit="10" stroke-width="15"/>
        <path id="Shape-36" data-name="Shape" d="M0,0V150.31a81.674,81.674,0,0,0,163.349,0V114.8" transform="translate(984.33 436.436)" fill="none" stroke="#16a3b2" stroke-linejoin="round" stroke-miterlimit="10" stroke-width="15"/>
        <path id="Shape-37" data-name="Shape" d="M.387,0V134.639" transform="translate(1034.928 260.217)" fill="none" stroke="#f6ae9f" stroke-linejoin="round" stroke-miterlimit="10" stroke-width="15"/>
        <path id="Shape-38" data-name="Shape" d="M0,68.8V33.123a33.284,33.284,0,1,1,66.569,0v13.3" transform="translate(1147.679 453.219)" fill="none" stroke="#16a3b2" stroke-linejoin="round" stroke-miterlimit="10" stroke-width="15"/>
        <path id="Shape-39" data-name="Shape" d="M86.9,174.239A87.119,87.119,0,0,1,86.9,0h79.477" transform="translate(0.217 588.894)" fill="none" stroke="#cfcfaf" stroke-linejoin="round" stroke-miterlimit="10" stroke-width="23.236"/>
        <path id="Shape-40" data-name="Shape" d="M37.107,21.86A37.084,37.084,0,1,0,74.232,58.945V0" transform="translate(183.444 729.473)" fill="none" stroke="#05203d" stroke-linejoin="round" stroke-miterlimit="10" stroke-width="23.236"/>
        <path id="Shape-41" data-name="Shape" d="M70.734,77.219H38.792A38.61,38.61,0,1,1,38.792,0h63.883a38.727,38.727,0,0,1,38.843,38.61v3.43a35.286,35.286,0,0,1-35.392,35.179" transform="translate(56.757 637.404)" fill="none" stroke="#f6ae9f" stroke-linejoin="round" stroke-miterlimit="10" stroke-width="23.236"/>
        <path id="Shape-42" data-name="Shape" d="M0,127.709V69.234C0,35.566,26.621,7.362,62.37,0" transform="translate(262.625 547.315)" fill="none" stroke="#cfcfaf" stroke-linejoin="round" stroke-miterlimit="10" stroke-width="23.236"/>
        <path id="Shape-43" data-name="Shape" d="M0,47.426a47.52,47.52,0,1,1,95.039,0V158.545a47.52,47.52,0,0,1-95.039,0Z" transform="translate(316.085 608.668)" fill="none" stroke="#89c7aa" stroke-linejoin="round" stroke-miterlimit="10" stroke-width="23.236"/>
        <path id="Shape-44" data-name="Shape" d="M0,39.042A38.829,38.829,0,0,1,38.61,0,38.829,38.829,0,0,1,77.22,39.042V83.159" transform="translate(1214.009 832.433)" fill="none" stroke="#f6ae9f" stroke-linejoin="round" stroke-miterlimit="10" stroke-width="23.236"/>
        <ellipse id="Shape-45" data-name="Shape" cx="41.085" cy="40.59" rx="41.085" ry="40.59" transform="translate(1331.818 769.073)" fill="none" stroke="#f6ae9f" stroke-linejoin="round" stroke-miterlimit="10" stroke-width="23.236"/>
        <path id="Shape-46" data-name="Shape" d="M73.985,37.125A36.993,36.993,0,1,1,36.993,0H175.229" transform="translate(1218.958 952.222)" fill="none" stroke="#cfcfaf" stroke-linejoin="round" stroke-miterlimit="10" stroke-width="23.236"/>
        <path id="Shape-47" data-name="Shape" d="M0,0H134.8a93.059,93.059,0,0,1,0,186.119H94.247" transform="translate(1246.679 715.614)" fill="none" stroke="#05203d" stroke-linejoin="round" stroke-miterlimit="10" stroke-width="23.236"/>
        <path id="Shape-48" data-name="Shape" d="M0,0H42.714a78.231,78.231,0,0,1,78.065,78.4v80" transform="translate(1442.697 952.222)" fill="none" stroke="#cfcfaf" stroke-linejoin="round" stroke-miterlimit="10" stroke-width="23.236"/>
        <ellipse id="Shape-49" data-name="Shape" cx="26.73" cy="26.235" rx="26.73" ry="26.235" transform="translate(1457.547 1004.692)" fill="none" stroke="#05203d" stroke-linejoin="round" stroke-miterlimit="10" stroke-width="23.236"/>
        <g id="Shape-50" data-name="Shape" transform="translate(1339.214 1061.121)">
          <path id="Shape-51" data-name="Shape" d="M.365,0,.422,29.7" transform="translate(-0.365 58.41)" fill="none" stroke="#89c7aa" stroke-linejoin="round" stroke-miterlimit="10" stroke-width="23.236"/>
          <path id="Shape-52" data-name="Shape" d="M.365,0,.422,29.7" transform="translate(-0.365)" fill="none" stroke="#cfcfaf" stroke-linejoin="round" stroke-miterlimit="10" stroke-width="23.236"/>
        </g>
        <path id="Shape-53" data-name="Shape" d="M.365,0,.422,29.7" transform="translate(1153.721 1010.632)" fill="none" stroke="#89c7aa" stroke-linejoin="round" stroke-miterlimit="10" stroke-width="23.236"/>
        <path id="Shape-54" data-name="Shape" d="M.365,0,.422,29.7" transform="translate(1153.721 952.222)" fill="none" stroke="#f6ae9f" stroke-linejoin="round" stroke-miterlimit="10" stroke-width="23.236"/>
        <path id="Shape-55" data-name="Shape" d="M.365,0,.422,29.7" transform="translate(1094.321 952.222)" fill="none" stroke="#cfcfaf" stroke-linejoin="round" stroke-miterlimit="10" stroke-width="23.236"/>
        <path id="Shape-56" data-name="Shape" d="M.365,0,.422,29.7" transform="translate(682.484 874.012)" fill="none" stroke="#05203d" stroke-linejoin="round" stroke-miterlimit="10" stroke-width="23.236"/>
        <path id="Shape-57" data-name="Shape" d="M.365,0,.422,29.7" transform="translate(243.917 894.802)" fill="none" stroke="#f6ae9f" stroke-linejoin="round" stroke-miterlimit="10" stroke-width="23.236"/>
        <path id="Shape-58" data-name="Shape" d="M.365,0,.422,29.7" transform="translate(377.566 494.845)" fill="none" stroke="#f6ae9f" stroke-linejoin="round" stroke-miterlimit="10" stroke-width="15"/>
        <path id="Shape-59" data-name="Shape" d="M.365,0,.422,29.7" transform="translate(329.056 421.586)" fill="none" stroke="#06818e" stroke-linejoin="round" stroke-miterlimit="10" stroke-width="15"/>
        <path id="Shape-60" data-name="Shape" d="M.365,0,.422,29.7" transform="translate(738.914 462.175)" fill="none" stroke="#16a3b2" stroke-linejoin="round" stroke-miterlimit="10" stroke-width="15"/>
        <path id="Shape-61" data-name="Shape" d="M.365,0,.422,29.7" transform="translate(1359.639 620.574)" fill="none" stroke="#05203d" stroke-linejoin="round" stroke-miterlimit="10" stroke-width="15"/>
        <path id="Shape-62" data-name="Shape" d="M.365,0,.422,29.7" transform="translate(1429.929 620.574)" fill="none" stroke="#05203d" stroke-linejoin="round" stroke-miterlimit="10" stroke-width="15"/>
        <path id="Shape-63" data-name="Shape" d="M.365,0,.422,29.7" transform="translate(1500.218 620.574)" fill="none" stroke="#05203d" stroke-linejoin="round" stroke-miterlimit="10" stroke-width="15"/>
        <path id="Shape-64" data-name="Shape" d="M.365,0,.422,29.7" transform="translate(1895.226 988.852)" fill="none" stroke="#f6ae9f" stroke-linejoin="round" stroke-miterlimit="10" stroke-width="23.236"/>
      </g>
      <path id="Shape-65" data-name="Shape" d="M0,98.952C0,44.3,48.753,0,108.9,0a116.6,116.6,0,0,1,56.968,14.6" transform="translate(1593.176 853.222)" fill="none" stroke="#f6ae9f" stroke-linejoin="round" stroke-miterlimit="10" stroke-width="23.236"/>
      <path id="Shape-66" data-name="Shape" d="M20.47,125.128V57.761C20.47,36.525,13.108,16.851.42.534.385.489.2.244,0,0" transform="translate(1790.504 894.413)" fill="none" stroke="#f6ae9f" stroke-linejoin="round" stroke-miterlimit="10" stroke-width="23.236"/>
    </g>
  </g>
</svg>
